<?xml version="1.0" encoding="UTF-8"?>
<svg id="Layer_1" xmlns="http://www.w3.org/2000/svg" version="1.1" viewBox="0 0 1413 1481">
  <!-- Generator: Adobe Illustrator 29.0.1, SVG Export Plug-In . SVG Version: 2.1.0 Build 192)  -->
  <path d="M694.48,977.89c-150.25,0-272.48-122.23-272.48-272.48s122.23-272.48,272.48-272.48,272.48,122.23,272.48,272.48c0,20.04-2.19,39.57-6.32,58.39,14.55,12.3,27.92,26.25,39.85,41.77l102.46,133.38c40.36-70.32,61.87-150.28,61.87-233.54,0-125.63-48.92-243.74-137.76-332.58-88.83-88.84-206.95-137.76-332.58-137.76s-243.74,48.92-332.58,137.76c-88.84,88.83-137.76,206.95-137.76,332.58s48.92,243.74,137.76,332.58c88.83,88.84,206.95,137.76,332.58,137.76,51.08,0,100.92-8.09,148.05-23.66l-134.09-174.55c-4.62.23-9.28.35-13.96.35Z"/>
  <path d="M1061.85,999.14l-116.28-151.38c-3.56-4.64-7.3-9.06-11.17-13.29-68.59-74.86-184.25-86.09-266.27-23.09h0l116.2,151.26,122.09,158.93c.73.95,1.47,1.88,2.22,2.81,67.08,84.18,189.51,99.4,275.22,33.56h0s-122-158.82-122-158.82Z"/>
</svg>